# xmcd
#
# Track frame offsets: 
#        150
#        11354
#        29266
#        49834
#        61951
#        79169
#        88546
#        108104
#        126946
#        147101
#        157274
#        171268
#
# Disc length: 2504 seconds
#
# Revision: 0
# Processed by: cddbd v1.5.2PL0 Copyright (c) Steve Scherf et al.
# Submitted via: ExactAudioCopyFreeDBPlugin 1.0
#
DISCID=9709c60c
DTITLE=Corin Tucker Band - "Kill My Blues"
DYEAR=2012
DGENRE=Country
TTITLE0=Groundhog Day
TTITLE1=Kill My Blues
TTITLE2=Neskowin
TTITLE3=I Don't Wanna Go
TTITLE4=Constance
TTITLE5=No Bad News Tonight
TTITLE6=Summer Jams
TTITLE7=None Like You
TTITLE8=Joey
TTITLE9=Outgoing Message
TTITLE10=Blood, Bones, and Sand
TTITLE11=Tiptoe
EXTD=
EXTT0=
EXTT1=
EXTT2=
EXTT3=
EXTT4=
EXTT5=
EXTT6=
EXTT7=
EXTT8=
EXTT9=
EXTT10=
EXTT11=
PLAYORDER=
